<?xml version="1.0" encoding="utf-8"?>
<!-- Generator: Adobe Illustrator 21.1.0, SVG Export Plug-In . SVG Version: 6.00 Build 0)  -->
<svg version="1.1" id="Layer_1" xmlns="http://www.w3.org/2000/svg" xmlns:xlink="http://www.w3.org/1999/xlink" x="0px" y="0px"
	 viewBox="0 0 182.9 32.6" style="enable-background:new 0 0 182.9 32.6;" xml:space="preserve">
<style type="text/css">
	.st0{fill:#207476;}
</style>
<title>Artboard 101</title>
<g>
	<path class="st0" d="M26.6,3.4c-0.3-0.4-0.9-0.4-1.1,0c-0.5,0.7-4.3,7.3-4.3,9.7c0,2.6,2.2,4.8,4.8,4.8s4.8-2.2,4.8-4.8
		C30.8,10.8,27,4.2,26.6,3.4z M22.5,13c0.1-1.6,2.2-5.6,3.5-7.9c1.3,2.3,3.4,6.3,3.5,7.9H22.5z"/>
	<path class="st0" d="M9.7,16.5c0-2.4-3.8-9-4.3-9.7c-0.3-0.4-0.9-0.4-1.1,0C3.8,7.5,0,14.1,0,16.5c0,1.3,0.5,2.5,1.4,3.4
		c0.9,0.9,2.1,1.4,3.4,1.4C7.5,21.3,9.7,19.2,9.7,16.5z M1.6,15.3c0.6-1.9,2.2-5,3.3-6.9c1.1,1.9,2.7,5,3.3,6.9H1.6z"/>
	<path class="st0" d="M21.7,28.5h-5.7V5c1-0.3,1.7-1.1,1.8-2.1l10.4-1.7c0.3-0.1,0.6-0.4,0.5-0.7c-0.1-0.3-0.4-0.6-0.7-0.5L17.5,1.7
		c-0.4-0.9-1.3-1.5-2.2-1.5c-1.3,0-2.3,1-2.4,2.2L2.4,4C2.1,4.1,1.8,4.4,1.9,4.8C2,5.1,2.2,5.3,2.6,5.3c0.1,0,0.1,0,0.1,0L13,3.6
		c0.3,0.7,0.9,1.1,1.6,1.3v23.4H8.8c-0.4,0-0.7,0.3-0.7,0.7s0.3,0.7,0.7,0.7h12.7c0.4,0,0.7-0.3,0.7-0.7S22,28.5,21.7,28.5z
		 M14.1,2.7c0-0.7,0.5-1.2,1.2-1.2s1.2,0.5,1.2,1.2s-0.5,1.2-1.2,1.2C14.6,3.8,14.1,3.3,14.1,2.7z"/>
</g>
<g>
	<path class="st0" d="M47.8,27.7h-6.7l9-26h6l9,26h-6.7l-1.4-4.4h-8L47.8,27.7z M53.1,10.3L50.7,18h4.8L53.1,10.3z"/>
	<path class="st0" d="M71.5,32.6H66V22.5h1.8c0.6-0.7,1-1.6,1.3-2.5c0.4-1.3,0.7-2.6,0.9-4c0.2-1.4,0.3-3.7,0.3-6.8V1.7h18.2v20.8
		h3.2v10.1h-5.5v-4.9H71.5V32.6z M74.5,22.5h7.6V6.9h-5.7v2.3c0,3.5-0.1,6.1-0.4,7.8c-0.2,1.7-0.6,3.3-1.2,4.9
		C74.8,21.9,74.7,22.2,74.5,22.5z"/>
	<path class="st0" d="M94.7,1.7h6.2v14.7L111,1.7h5v26h-6.2V13.1l-10,14.5h-5V1.7z"/>
	<path class="st0" d="M122.6,1.7h18.2v26h-6.2V6.9h-5.7v2.8c0,4.1-0.1,7-0.3,8.7c-0.2,1.7-0.5,3.1-1,4.4c-1.2,3.2-4.2,5-8.9,5.3
		v-6.4c1.7-0.3,2.8-1,3.3-2.1c0.4-1.1,0.6-4.3,0.6-9.8V1.7z"/>
	<path class="st0" d="M145.3,1.7h16.4v5.2h-10.2v4.7h9v5.2h-9v5.6h10.2v5.2h-16.4V1.7z"/>
	<path class="st0" d="M163.1,1.7h19.8v5.2h-6.8v20.8h-6.3V6.9h-6.8V1.7z"/>
</g>
</svg>
