<svg id="Layer_1" data-name="Layer 1" xmlns="http://www.w3.org/2000/svg" viewBox="0 0 1305.24 235.93">
  <defs>
    <style>
      .cls-1 {
        fill: #fff;
      }
    </style>
  </defs>
  <title>adilet</title><path class="cls-1" d="M195.29,25.27c-1.94-2.91-6.79-2.91-8.24,0-3.39,5.33-31.5,53.79-31.5,71.23a35.37,35.37,0,1,0,70.75,0C226.3,79.06,198.2,31.09,195.29,25.27Zm-30,70.26c1-11.63,16.47-41.19,25.68-57.67,9.21,17,24.71,46,25.68,57.67Z"/><path
    class="cls-1"
    d="M71.23,121.22c0-17.45-28.11-65.9-31.5-71.24C37.8,47.08,33,47.08,31.5,50,28.11,55.32,0,103.78,0,121.22a36.82,36.82,0,0,0,10.18,25.2,34.74,34.74,0,0,0,25.2,10.17C55.24,156.6,71.23,140.6,71.23,121.22Zm-59.6-8.72C16,98.44,28.11,75.67,35.86,61.62c7.75,14.05,19.87,36.83,24.23,50.88Z"/><path
    class="cls-1"
    d="M158.95,208.93H116.79V36.9c7.27-1.94,12.11-8.24,13.08-15.51L205.95,9.28A4.81,4.81,0,0,0,209.83,4,4.8,4.8,0,0,0,204.49.07L128.41,12.19A18.05,18.05,0,0,0,94,17.52L17.93,29.64A4.8,4.8,0,0,0,14.05,35a4.72,4.72,0,0,0,4.85,3.88h1L95.46,26.73a17.94,17.94,0,0,0,11.63,9.69v172H64.93a4.85,4.85,0,0,0,0,9.69h93.52a4.58,4.58,0,0,0,4.85-4.85A4.07,4.07,0,0,0,158.95,208.93ZM103.22,19.46a8.72,8.72,0,1,1,8.72,8.72C107.09,27.7,103.22,24.3,103.22,19.46Z"/><path class="cls-1" d="M279.91,183.38l12.75-1L354.29,20.34h13.47l61,162.09,13,1v10.49H399V183.38l15.13-1.2-14.31-38.85H321.87l-14.42,38.85,15.13,1.2v10.49H279.91Zm46.72-52.8h68.52L361.44,38.81h-.72Z"/><path
    class="cls-1"
    d="M618.28,235.93H605V193.86H473.35v42.07H460.72l-1.55-54.11h11.68q9.77-10.25,19.43-33.85T502,82.78l2.51-50.29-18.83-1.55V20.34H620.18v10.6l-19.43,1.55V181.83h18.59Zm-102-153.15q-1.8,34-9.83,59.53t-19.14,39.51h99.16V32.49h-67.7Z"/><path
    class="cls-1"
    d="M698.84,20.34v10.6l-19.43,1.55v118l.72.24,98.68-104.4V32.49l-19.43-1.55V20.34h53v10.6L793,32.49V181.83l19.43,1.55v10.49h-53V183.38l19.43-1.55V64.91l-.71-.24L679.42,169.43v12.39l19.43,1.55v10.49h-53V183.38l19.43-1.55V32.49l-19.43-1.55V20.34h53Z"/><path class="cls-1" d="M888.1,32.49l-3.69,66.38q-2.49,52.56-12.34,73.78T836.5,193.86h-4.89v-12H836q17.52,0,24.67-17.34t9.53-65.62l3.69-66.38-18.71-1.55V20.34H995.13v10.6l-19.43,1.55V181.83l19.43,1.55v10.49H942V183.38l19.43-1.55V32.49Z"/><path class="cls-1" d="M1117.64,109.84h-71.15v72h82l1.07-26h12.64v38H1012.88V183.38l19.43-1.55V32.49l-19.43-1.55V20.34H1141.6V58.47H1129l-1.07-26h-81.4V97.68h71.15Z"/><path class="cls-1" d="M1305.24,20.34V56.92h-12.64l-1.07-24.43h-48.15V181.83l19.43,1.55v10.49h-53.15V183.38l19.42-1.55V32.49h-48.14l-1,24.43h-12.75V20.34Z"/></svg>
