<?xml version="1.0" encoding="utf-8"?>
<!-- Generator: Adobe Illustrator 21.1.0, SVG Export Plug-In . SVG Version: 6.00 Build 0)  -->
<svg
	version="1.1"
	id="Layer_1"
	xmlns:cc="http://creativecommons.org/ns#"
	xmlns:dc="http://purl.org/dc/elements/1.1/"
	xmlns:inkscape="http://www.inkscape.org/namespaces/inkscape"
	xmlns:rdf="http://www.w3.org/1999/02/22-rdf-syntax-ns#"
	xmlns:sodipodi="http://sodipodi.sourceforge.net/DTD/sodipodi-0.dtd"
	xmlns:svg="http://www.w3.org/2000/svg"
	xmlns="http://www.w3.org/2000/svg"
	xmlns:xlink="http://www.w3.org/1999/xlink"
	x="0px"
	y="0px"
	viewBox="0 0 90 80"
	style="enable-background:new 0 0 90 80;"
	xml:space="preserve">
	<style type="text/css">
		.st0 {
			fill: #ffc125;
		}
	</style>
	<g transform="translate(0,-952.36218)">
		<path
			class="st0"
			d="M12.7,952.4c-1.5,0.2-2.7,1.5-2.7,3v4c0,0.7,0.2,1.4,0.7,1.9l4.3,5.2v21.8l-4.3,5.2c-0.5,0.5-0.7,1.2-0.7,1.9
		v4c0,1.7,1.3,3,3,3h28c1.7,0,3-1.3,3-3v-4c0-0.7-0.2-1.4-0.7-1.9l-4.3-5.2v-2.9h48c1.7,0,3-1.3,3-3v-10c0-1.7-1.3-3-3-3H39v-2.9
		l4.3-5.2c0.4-0.5,0.7-1.2,0.7-1.9v-4c0-1.7-1.3-3-3-3H13C12.9,952.4,12.8,952.4,12.7,952.4z M16.1,958.4h21.8l-3.3,4H19.4
		L16.1,958.4z M21,968.4h12v18H21V968.4z M39,975.4h45v4H39V975.4z M19.4,992.4h15.2l3.3,4H16.1L19.4,992.4z M6.7,1011.4
		c-1.5,0.2-2.7,1.5-2.7,3v3H3c-1.7,0-3,1.3-3,3v9c0,1.7,1.3,3,3,3h34c1.7,0,3-1.3,3-3v-9c0-1.7-1.3-3-3-3h-1v-3c0-1.7-1.3-3-3-3H7
		C6.9,1011.4,6.8,1011.4,6.7,1011.4z M10,1017.4h20v3c0,1.7,1.3,3,3,3h1v3H6v-3h1c1.7,0,3-1.3,3-3V1017.4z"/>
	</g>
</svg>
