<svg id="Layer_1" data-name="Layer 1" xmlns="http://www.w3.org/2000/svg" viewBox="0 0 73.1 65.35">
  <defs>
    <style>
      .cls-1 {
        fill: #207476;
      }

    </style>
  </defs>
  <title>education</title><path
    class="cls-1"
    d="M.5,24.75,8.6,30v13.5a.89.89,0,0,0,.5.8L36,61.55a1.69,1.69,0,0,0,.5.2,1.06,1.06,0,0,0,.5-.2l17.1-11V54a4.39,4.39,0,0,0-3.4,4.3v6.1a.94.94,0,0,0,1,1h6.9a.94.94,0,0,0,1-1v-6.1a4.41,4.41,0,0,0-3.4-4.3v-4.7l7.8-5a1,1,0,0,0,.5-.8V30l8.1-5.2a1,1,0,0,0,.5-.8.89.89,0,0,0-.5-.8L37.1.15a1.08,1.08,0,0,0-1.1,0L.5,23.05a1,1,0,0,0-.5.8A1.19,1.19,0,0,0,.5,24.75Zm57.2,33.5v5.1H52.8v-5.1a2.45,2.45,0,0,1,4.9,0Zm-21.2,1.3L10.6,42.85V31.25L36,47.65a1.69,1.69,0,0,0,.5.2,1.06,1.06,0,0,0,.5-.2l17.1-11v11.6Zm26-16.7-6.3,4V35.25l6.3-4Zm-26-40.7,33.6,21.7-15,9.6-18-11.8a1,1,0,1,0-1.1,1.7l17.4,11.4L36.5,45.55,2.9,23.85Z"/></svg>
