<?xml version="1.0" encoding="utf-8"?>
<!-- Generator: Adobe Illustrator 21.1.0, SVG Export Plug-In . SVG Version: 6.00 Build 0)  -->
<svg version="1.1" id="Layer_1" xmlns="http://www.w3.org/2000/svg" xmlns:xlink="http://www.w3.org/1999/xlink" x="0px" y="0px" viewBox="0 0 74.6 90" style="enable-background:new 0 0 74.6 90;" xml:space="preserve">
	<style type="text/css">
		.st0 {
			display: none;
		}
		.st1 {
			display: inline;
			stroke: #000000;
			stroke-width: 4;
			stroke-miterlimit: 10;
		}
		.st2 {
			fill: #ffc125;
		}
	</style>
	<g class="st0">
		<rect x="-495.7" y="-262.5" class="st1" width="1220.1" height="751.6"/>
	</g>
	<g>
		<path
			class="st2"
			d="M0,52.3v24.7C0,78.6,1.4,80,3.1,80s3.1-1.4,3.1-3.1v-0.3V52.3c0-3.9,3.2-7.1,7.1-7.1h6.4
		c3.6,0,6.7,2.7,7.1,6.3c0,0.3,0.1,0.6,0.1,0.8v0.6C25.7,54.6,25,56.7,25,59c0,2.3,0.7,4.4,1.9,6.2v2.5c-2.5,1.8-4,4.6-4.4,7.7
		c0,0.4-0.1,0.8-0.1,1.3v10.1c0,1.7,1.4,3.1,3.1,3.1s3.1-1.4,3.1-3.1v-0.9v-9.2c0-1.9,1.1-3.6,2.8-4.5c0.5-0.3,1.1-0.4,1.6-0.5
		l0.1,0c0.1,0,0.3,0,0.5,0h5.1c0.2,0,0.3,0,0.5,0l0.1,0h0l0.2,0c2.4,0.4,4.3,2.5,4.3,4.9v9.5v0.8c0,1.7,1.4,3.1,3.1,3.1
		s3.1-1.4,3.1-3.1v-9.5v-0.8c0-4.1-2.3-7.9-5.8-9.8c2-2,3.2-4.8,3.2-7.8c0-3.6-1.7-6.7-4.3-8.8v-7.6c0-4.9,4-9,9-9h7.6
		c4.9,0,9,4,9,9v35.7v0.2c0,1.7,1.4,3.1,3.1,3.1s3.1-1.4,3.1-3.1V42.7c0-7-4.8-13-11.4-14.7c4.5-2.6,7.5-7.4,7.5-13
		c0-8.3-6.7-15-15.1-15s-15,6.7-15,15c0,5.5,3,10.4,7.5,13c-6.5,1.7-11.4,7.6-11.4,14.7v5.2c-0.2,0-0.4,0-0.7,0
		c-1.3,0-2.5,0.2-3.6,0.6c-1.3-4.4-4.8-7.9-9.2-9.1c3.6-2.3,6-6.2,6-10.8c0-7-5.7-12.8-12.8-12.8S3.8,21.6,3.8,28.6
		c0,4.6,2.4,8.6,6,10.8C4.2,41,0,46.1,0,52.3z M46.8,15c0-4.9,4-8.9,8.9-8.9s8.9,4,8.9,8.9c0,4.9-4,8.9-8.9,8.9
		C50.8,23.9,46.8,19.9,46.8,15z M36.1,54.1c2.7,0,4.9,2.2,4.9,4.9c0,2.7-2.2,4.9-4.9,4.9s-4.9-2.2-4.9-4.9
		C31.2,56.3,33.4,54.1,36.1,54.1z M16.5,22c3.6,0,6.6,2.9,6.6,6.6c0,3.6-2.9,6.6-6.6,6.6s-6.6-2.9-6.6-6.6C9.9,25,12.9,22,16.5,22z"/>
	</g>
</svg>
