<?xml version="1.0" encoding="utf-8"?>
<!-- Generator: Adobe Illustrator 21.1.0, SVG Export Plug-In . SVG Version: 6.00 Build 0)  -->
<svg version="1.1" id="Layer_1" xmlns="http://www.w3.org/2000/svg" xmlns:xlink="http://www.w3.org/1999/xlink" x="0px" y="0px"
	 viewBox="0 0 50.6 9.8" style="enable-background:new 0 0 50.6 9.8;" xml:space="preserve">
<style type="text/css">
	.st0{fill:#FFFFFF;}
</style>
<g>
	<path class="st0" d="M2.2,8.3H0l2.4-4.2L0.4,0h2.1l1.6,3.3h0.5V0h2v3.3H7L8.7,0h2.1L8.7,4.1l2.4,4.2H8.9L7,4.9H6.6v3.3h-2V4.9H4.1
		L2.2,8.3z"/>
	<path class="st0" d="M13.4,8.3h-2.1L14.1,0h1.9l2.9,8.3h-2.1l-0.4-1.4h-2.6L13.4,8.3z M15.1,2.8l-0.8,2.4h1.5L15.1,2.8z"/>
	<path class="st0" d="M21.5,5.5v2.8h-2V0h3.1c2,0,3.1,0.9,3.1,2.7c0,1.8-1.2,2.8-3.1,2.8H21.5z M21.5,3.8h0.8c1.1,0,1.5-0.3,1.5-1.1
		c0-0.7-0.5-1-1.5-1h-0.8V3.8z"/>
	<path class="st0" d="M27.5,9.8h-1.8V6.6h0.6c0.2-0.2,0.3-0.5,0.4-0.8C26.9,5.4,27,5,27,4.5c0.1-0.4,0.1-1.2,0.1-2.2V0h5.8v6.6h1
		v3.2h-1.8V8.3h-4.7V9.8z M28.5,6.6h2.4v-5h-1.8v0.7c0,1.1,0,1.9-0.1,2.5c-0.1,0.5-0.2,1-0.4,1.5C28.6,6.5,28.6,6.5,28.5,6.6z"/>
	<path class="st0" d="M36.2,8.3h-2.1L37,0h1.9l2.9,8.3h-2.1l-0.4-1.4h-2.6L36.2,8.3z M37.9,2.8l-0.8,2.4h1.5L37.9,2.8z"/>
	<path class="st0" d="M44.2,0l2.2,4.2L48.7,0h1.9v8.3h-1.9V3.6L47,6.9h-1.1l-1.7-3.3v4.6h-1.9V0H44.2z"/>
</g>
</svg>
