<?xml version="1.0" encoding="utf-8"?>
<!-- Generator: Adobe Illustrator 21.1.0, SVG Export Plug-In . SVG Version: 6.00 Build 0)  -->
<svg version="1.1" id="Layer_1" xmlns="http://www.w3.org/2000/svg" xmlns:xlink="http://www.w3.org/1999/xlink" x="0px" y="0px"
	 viewBox="0 0 46.7 45" style="enable-background:new 0 0 46.7 45;" xml:space="preserve">
<style type="text/css">
	.st0{fill:#FFFFFF;}
</style>
<title>Artboard 101</title>
<g>
	<path class="st0" d="M40.3,5.2c-0.4-0.6-1.4-0.6-1.7,0c-0.7,1.1-6.5,11.1-6.5,14.7c0,4,3.3,7.3,7.3,7.3s7.3-3.3,7.3-7.3
		C46.7,16.3,40.9,6.4,40.3,5.2z M34.1,19.7c0.2-2.4,3.4-8.5,5.3-11.9c1.9,3.5,5.1,9.5,5.3,11.9H34.1z"/>
	<path class="st0" d="M14.7,25c0-3.6-5.8-13.6-6.5-14.7c-0.4-0.6-1.4-0.6-1.7,0C5.8,11.4,0,21.4,0,25c0,2,0.8,3.8,2.1,5.2
		c1.4,1.4,3.2,2.1,5.2,2.1C11.4,32.3,14.7,29,14.7,25z M2.4,23.2c0.9-2.9,3.4-7.6,5-10.5c1.6,2.9,4.1,7.6,5,10.5H2.4z"/>
	<path class="st0" d="M32.8,43.1h-8.7V7.6c1.5-0.4,2.5-1.7,2.7-3.2l15.7-2.5c0.5-0.1,0.9-0.6,0.8-1.1c-0.1-0.5-0.6-0.9-1.1-0.8
		L26.5,2.5c-0.6-1.3-1.9-2.2-3.4-2.2c-1.9,0-3.5,1.5-3.7,3.3L3.7,6.1C3.2,6.2,2.8,6.7,2.9,7.2S3.4,8,3.9,8C4,8,4,8,4.1,8l15.6-2.5
		c0.5,1,1.3,1.7,2.4,2V43h-8.7c-0.6,0-1,0.4-1,1s0.4,1,1,1h19.3c0.6,0,1-0.4,1-1S33.3,43.1,32.8,43.1z M21.3,4c0-1,0.8-1.8,1.8-1.8
		S24.9,3,24.9,4s-0.8,1.8-1.8,1.8C22.1,5.7,21.3,5,21.3,4z"/>
</g>
</svg>
