<?xml version="1.0" encoding="utf-8"?>
<!-- Generator: Adobe Illustrator 21.1.0, SVG Export Plug-In . SVG Version: 6.00 Build 0)  -->
<svg version="1.1" id="Layer_1" xmlns="http://www.w3.org/2000/svg" xmlns:xlink="http://www.w3.org/1999/xlink" x="0px" y="0px" viewBox="0 0 64.3 59.3" style="enable-background:new 0 0 64.3 59.3;" xml:space="preserve">
	<style type="text/css">
		.st0 {
			fill: #207476;
		}

	</style>
	<path
		class="st0"
		d="M64.3,26.9c0-0.1,0-0.2,0-0.2c0-0.1,0-0.1,0-0.2c0-0.1,0-0.1-0.1-0.2c0-0.1,0-0.2-0.1-0.2c0,0,0,0,0,0L55.4,7.8
	c0,0,0,0,0-0.1c0,0-0.1-0.1-0.1-0.1c0,0,0-0.1-0.1-0.1c0,0-0.1-0.1-0.1-0.1c0,0-0.1-0.1-0.1-0.1c0,0-0.1-0.1-0.1-0.1
	c0,0-0.1-0.1-0.1-0.1c0,0-0.1-0.1-0.1-0.1c0,0-0.1,0-0.1-0.1c0,0-0.1-0.1-0.1-0.1c0,0,0,0-0.1,0c0,0,0,0,0,0c0,0-0.1,0-0.1,0
	c-0.1,0-0.1,0-0.2-0.1c0,0-0.1,0-0.1,0c0,0-0.1,0-0.1,0c-0.1,0-0.1,0-0.2,0c-0.1,0-0.1,0-0.2,0c0,0,0,0,0,0H34.2V2.1
	c0-1.2-0.9-2.1-2.1-2.1c-1.2,0-2.1,0.9-2.1,2.1v4.5H10.8c0,0,0,0,0,0c-0.1,0-0.1,0-0.2,0c-0.1,0-0.1,0-0.2,0c0,0-0.1,0-0.1,0
	c0,0-0.1,0-0.1,0c-0.1,0-0.1,0-0.2,0.1c0,0-0.1,0-0.1,0c0,0,0,0,0,0c0,0,0,0-0.1,0c0,0-0.1,0.1-0.1,0.1c0,0-0.1,0-0.1,0.1
	c0,0-0.1,0.1-0.1,0.1c0,0-0.1,0.1-0.1,0.1c0,0-0.1,0.1-0.1,0.1c0,0-0.1,0.1-0.1,0.1c0,0-0.1,0.1-0.1,0.1c0,0,0,0.1-0.1,0.1
	C9,7.6,9,7.7,9,7.7c0,0,0,0,0,0.1L0.2,26.1c0,0,0,0,0,0c0,0.1-0.1,0.1-0.1,0.2c0,0.1,0,0.1-0.1,0.2c0,0.1,0,0.1,0,0.2
	c0,0.1,0,0.2,0,0.2c0,0,0,0,0,0c0,6,4.8,10.8,10.8,10.8S21.6,32.9,21.6,27c0,0,0,0,0,0c0-0.1,0-0.2,0-0.2c0-0.1,0-0.1,0-0.2
	c0-0.1,0-0.1-0.1-0.2c0-0.1,0-0.2-0.1-0.2c0,0,0,0,0,0l-7.3-15.3h15.9v44.3H13.1C12,55.1,11,56,11,57.2s0.9,2.1,2.1,2.1h38
	c1.2,0,2.1-0.9,2.1-2.1s-0.9-2.1-2.1-2.1H34.2V10.8h15.9l-7.3,15.3c0,0,0,0,0,0c0,0.1-0.1,0.1-0.1,0.2c0,0.1,0,0.1-0.1,0.2
	c0,0.1,0,0.1,0,0.2c0,0.1,0,0.2,0,0.2c0,0,0,0,0,0c0,6,4.8,10.8,10.8,10.8C59.4,37.8,64.3,32.9,64.3,26.9
	C64.3,27,64.3,26.9,64.3,26.9z M10.8,13.6l5.4,11.3H5.4L10.8,13.6z M10.8,33.6c-2.9,0-5.4-1.9-6.3-4.5h12.5
	C16.2,31.7,13.7,33.6,10.8,33.6z M58.9,24.9H48.1l5.4-11.3L58.9,24.9z M53.5,33.6c-2.9,0-5.4-1.9-6.3-4.5h12.5
	C58.9,31.7,56.4,33.6,53.5,33.6z"/>
</svg>
