<?xml version="1.0" encoding="utf-8"?>
<!-- Generator: Adobe Illustrator 21.1.0, SVG Export Plug-In . SVG Version: 6.00 Build 0)  -->
<svg version="1.1" id="Layer_1" xmlns="http://www.w3.org/2000/svg" xmlns:xlink="http://www.w3.org/1999/xlink" x="0px" y="0px" viewBox="0 0 53.9 42.4" style="enable-background:new 0 0 53.9 42.4;" xml:space="preserve">
	<style type="text/css">
		.st0 {
			fill: #ffc125;
		}
	</style>
	<path
		class="st0"
		d="M40.5,3.5L40.5,3.5c0.1,0.1,0.2,0.5,0.7,1.7l5.8,0c3.3,0,6.1,2.7,6.1,6.1c0,1.5-0.6,2.9-1.6,3.9
	c1.4,1.1,2.4,2.8,2.4,4.8c0,2-1,3.7-2.5,4.8c1,1,1.5,2.4,1.5,3.9l0,0.2c0,2-1.1,3.8-2.7,4.8c0.7,0.9,1.1,2,1.1,3.1l0,0.2
	c0,2.9-2.4,5.3-5.3,5.3l-9.2,0c-0.1,0-0.1,0-0.2,0c0,0-0.1,0-0.1,0c-0.7,0-14.9,0.6-20.5-5.6c-0.8,0.2-1.6,0.4-2.5,0.7
	c-3,0.9-6.3,1.9-9.2,0c-1.3-0.8-2.2-2.3-2.7-4.1C0.5,29.6,0,25.8,0,22.2c0-0.4,0-0.9,0-1.3L0,20c0.1-3.7,0.3-9.4,4-11.6
	c1.1-0.7,2.6-0.9,4.2-0.6c1.9,0.3,3.7,1.1,5.5,1.8c0.9,0.4,1.8,0.7,2.6,1c0.1-0.2,0.2-0.4,0.3-0.6l0.3-0.7c0.9-1.7,1.8-3.6,3.3-5
	c2.2-2.2,5.4-3,7.5-3.4c0.4-0.1,0.9-0.2,1.3-0.3c2.3-0.5,4.9-1,7.4-0.4C38.4,0.8,39.8,1.9,40.5,3.5z M50.1,11.3
	c0-1.7-1.4-3.1-3.1-3.1l-4.6,0c0.4,0.8,0.8,1.8,1.3,3c0.4,0.9,0.5,1.8,0.3,2.7l3.4,0C48.9,13.9,50.1,12.7,50.1,11.3z M47.8,23
	c1.7,0,3-1.4,3-3c0-1.7-1.4-3-3-3l-0.4,0l-4.9,0c-0.4,0.4-1,0.8-1.5,1c-2,0.8-3.7,0.3-5.1-0.8c-0.9,0.4-1.5,1.4-1.5,2.4l0,0.4
	c0,1.7,1.4,3,3,3C37.4,23,47.8,23,47.8,23z M50,28.9l0-0.2c0-1.5-1.2-2.7-2.7-2.7l-10.2,0c-1.5,0-2.7,1.2-2.7,2.7l0,0.2
	c0,1.5,1.2,2.7,2.7,2.7l8.9,0c0,0,0,0,0,0l1.2,0C48.8,31.6,50,30.4,50,28.9z M46,39.4c1.3,0,2.3-1,2.3-2.3l0-0.2
	c0-1.3-1-2.3-2.3-2.3l-8.9,0c0,0,0,0,0,0l-0.2,0c-1.3,0-2.3,1-2.3,2.3l0,0.2c0,1.3,1,2.3,2.3,2.3L46,39.4z M29.6,3.6
	c-0.5,0.1-0.9,0.2-1.3,0.3c-2.8,0.5-4.7,1.3-6,2.6c-1.1,1.1-1.9,2.7-2.7,4.3l-0.3,0.7c-0.2,0.4-0.4,0.7-0.6,1.1
	c-0.8,1.6-1.6,3.1-2.1,4.7c-0.2,0.8-1.1,1.3-1.9,1c-0.7-0.2-1.1-0.8-1.1-1.4c0-0.1,0-0.3,0.1-0.4c0.3-1.1,0.7-2.1,1.2-3.1
	c-0.8-0.3-1.6-0.6-2.4-0.9c-1.7-0.7-3.3-1.3-4.9-1.6c-0.8-0.1-1.6-0.1-2.1,0.2c-2.3,1.4-2.4,6.2-2.5,9.1L3,21
	c-0.1,3.7,0.4,7.8,1.4,11.5c0.2,0.8,0.7,1.9,1.5,2.4c1.7,1.1,4.2,0.4,6.7-0.3c0.6-0.2,1.1-0.3,1.7-0.5c-0.3-0.9-0.5-1.8-0.6-2.8
	c0,0,0-0.1,0-0.1c0-0.8,0.6-1.5,1.4-1.5c0.8,0,1.5,0.6,1.6,1.4c0.3,6.2,9.7,7.8,15.4,8.2c-0.3-0.7-0.5-1.4-0.5-2.2l0-0.2
	c0-1.5,0.7-2.9,1.7-3.8c-1.1-1-1.8-2.5-1.8-4.1l0-0.2c0-1.7,0.7-3.2,1.9-4.2c-0.9-0.8-1.6-1.9-1.9-3.1c-1.4,1-3.2,1.9-5.4,2.4
	c-0.8,0.2-1.6-0.3-1.8-1.1c0-0.1,0-0.2,0-0.3c0-0.7,0.5-1.3,1.2-1.5c3.6-0.8,5.8-3.1,6.8-4.4c0,0,0,0,0.1-0.1c0.4-0.5,0.8-1,1.3-1.4
	c-0.3-0.3-0.5-0.7-0.8-1c-0.5-0.6-1-1.2-1.4-1.7c-0.6-0.6-0.6-1.5,0-2.1c0.6-0.6,1.5-0.6,2.1,0c0.6,0.6,1.1,1.2,1.6,1.9
	c2,2.6,3.1,3.6,4.5,3c0.5-0.2,0.9-0.6,1.2-1.2c0.2-0.5,0.2-1.1,0-1.6c0,0-3.2-7.6-3.2-7.7c-0.3-0.7-1-1.1-2.1-1.4
	C33.8,2.7,31.6,3.2,29.6,3.6z"/>
</svg>
